<svg width="248" height="106" viewBox="0 0 248 106" fill="none" xmlns="http://www.w3.org/2000/svg">
<path d="M142.339 70.9417L161.382 17.7137M121.227 53.8234L102.013 47.9617M106.615 35.0983L87.5713 88.3263M111.071 82.2116L91.8561 76.35M56.3389 50.3235C47.4692 53.7743 28.8016 56.3209 25.0894 38.9012C20.4491 17.1265 23.8823 13.5153 18.6248 6.63846C13.6601 0.144657 6.00829 7.29629 4 10.4129M244 99.5122C234.96 103.016 215.895 105.515 211.952 87.4741C207.022 64.9235 213.908 59.8925 205.068 54.0646C197.995 49.4024 192.173 54.6535 190.147 57.8619M144.243 65.6189L159.478 23.0365L182.535 30.0705C191.025 32.6603 195.633 41.1147 192.829 48.9539L187.75 63.1481C184.946 70.9873 175.79 75.2427 167.3 72.6529L144.243 65.6189ZM104.552 40.8647L89.3169 83.4471L66.2596 76.4131C57.7701 73.8233 53.1616 65.3689 55.9663 57.5297L61.0446 43.3355C63.8493 35.4963 73.005 31.2409 81.4945 33.8307L104.552 40.8647Z" stroke="url(#paint0_linear_555_24945)" stroke-width="8" stroke-linecap="round"/>
<defs>
<linearGradient id="paint0_linear_555_24945" x1="4.13389" y1="53.6642" x2="243.929" y2="53.6642" gradientUnits="userSpaceOnUse">
<stop stop-color="#5228EF"/>
<stop offset="1" stop-color="#BF1FF8"/>
</linearGradient>
</defs>
</svg>
