<svg width="49" height="48" viewBox="0 0 49 48" fill="none" xmlns="http://www.w3.org/2000/svg">
<path d="M2.3 24C1.30589 24 0.492975 24.807 0.567458 25.7983C0.876514 29.9117 2.24178 33.8871 4.54473 37.3337C7.18188 41.2805 10.9302 44.3566 15.3156 46.1731C19.701 47.9896 24.5266 48.4649 29.1822 47.5388C33.8377 46.6128 38.1141 44.327 41.4706 40.9706C44.827 37.6141 47.1128 33.3377 48.0388 28.6822C48.9649 24.0266 48.4896 19.201 46.6731 14.8156C44.8566 10.4302 41.7805 6.68188 37.8337 4.04473C34.3871 1.74179 30.4117 0.376515 26.2984 0.067458C25.307 -0.00702458 24.5 0.805887 24.5 1.8C24.5 2.79411 25.3075 3.59175 26.2977 3.67935C29.6982 3.98016 32.9793 5.13078 35.8336 7.03802C39.1884 9.2796 41.8031 12.4656 43.3471 16.1933C44.8912 19.9209 45.2952 24.0226 44.508 27.9798C43.7209 31.9371 41.778 35.572 38.925 38.425C36.072 41.278 32.4371 43.2209 28.4798 44.008C24.5226 44.7952 20.4209 44.3912 16.6933 42.8471C12.9656 41.3031 9.7796 38.6884 7.53802 35.3336C5.63078 32.4793 4.48016 29.1982 4.17935 25.7977C4.09175 24.8075 3.29411 24 2.3 24Z" fill="url(#paint0_linear_6262_8156)"/>
<defs>
<linearGradient id="paint0_linear_6262_8156" x1="24.5" y1="0" x2="24.5" y2="48" gradientUnits="userSpaceOnUse">
<stop stop-color="#5228EF"/>
<stop offset="1" stop-color="#BF1FF8"/>
</linearGradient>
</defs>
</svg>
